<svg width="22" height="22" viewBox="0 0 22 22" fill="none" xmlns="http://www.w3.org/2000/svg">
<g id="4829870_arrow_back_left_icon 1">
<g id="Layer 2">
<path id="Vector" d="M15.0559 6.18749C14.9279 6.3163 14.856 6.49055 14.856 6.67217C14.856 6.8538 14.9279 7.02805 15.0559 7.15686L18.2184 10.3125L2.02782 10.3125C1.84548 10.3125 1.67061 10.3849 1.54168 10.5138C1.41275 10.6428 1.34032 10.8176 1.34032 11C1.34032 11.1823 1.41275 11.3572 1.54168 11.4861C1.67061 11.6151 1.84548 11.6875 2.02782 11.6875L18.1978 11.6875L15.0559 14.8294C14.9256 14.9588 14.852 15.1348 14.8513 15.3185C14.8507 15.5022 14.923 15.6787 15.0525 15.809C15.182 15.9394 15.3579 16.013 15.5416 16.0137C15.7254 16.0143 15.9018 15.9419 16.0322 15.8125L20.4047 11.4331C20.5201 11.3172 20.585 11.1602 20.585 10.9965C20.585 10.8329 20.5201 10.6759 20.4047 10.56L16.0322 6.18749C15.9683 6.12305 15.8922 6.0719 15.8085 6.037C15.7247 6.0021 15.6348 5.98412 15.5441 5.98412C15.4533 5.98412 15.3634 6.0021 15.2797 6.037C15.1959 6.0719 15.1199 6.12305 15.0559 6.18749Z" fill="black"/>
</g>
</g>
</svg>
