<svg width="44" height="65" viewBox="0 0 44 65" fill="none" xmlns="http://www.w3.org/2000/svg">
<path d="M36.578 48.0924C45.1012 48.0924 45.5551 35.8557 37.1925 32.6764C38.1548 30.5387 37.914 30.8865 37.914 13.3595C37.9141 11.6052 37.5686 9.86797 36.8974 8.24712C36.2261 6.62628 35.2421 5.15353 34.0016 3.91297C32.7612 2.67241 31.2885 1.68834 29.6677 1.01695C28.0469 0.345561 26.3097 -4.18418e-09 24.5554 0L19.2116 0C15.6686 0 12.2708 1.40742 9.7656 3.91264C7.26037 6.41787 5.85295 9.81568 5.85295 13.3586C5.85295 30.9926 5.61215 30.5387 6.57444 32.6755C-1.73466 35.829 -1.41175 48.0924 7.18891 48.0924H19.2116V53.4362H11.1968C10.1399 53.4362 9.10669 53.7496 8.2279 54.3368C7.34912 54.924 6.66419 55.7586 6.25973 56.7351C5.85527 57.7115 5.74944 58.786 5.95563 59.8226C6.16183 60.8592 6.67077 61.8113 7.41812 62.5587C8.16546 63.306 9.11764 63.815 10.1542 64.0212C11.1908 64.2274 12.2653 64.1215 13.2417 63.7171C14.2182 63.3126 15.0528 62.6277 15.64 61.7489C16.2272 60.8701 16.5406 59.8369 16.5406 58.78H27.2273C27.2273 59.8369 27.5407 60.8701 28.1279 61.7489C28.715 62.6277 29.5496 63.3126 30.5261 63.7171C31.5025 64.1215 32.577 64.2274 33.6136 64.0212C34.6502 63.815 35.6024 63.306 36.3497 62.5587C37.0971 61.8113 37.606 60.8592 37.8122 59.8226C38.0184 58.786 37.9126 57.7115 37.5081 56.7351C37.1036 55.7586 36.4187 54.924 35.5399 54.3368C34.6611 53.7496 33.628 53.4362 32.5711 53.4362H24.5554V48.0924H36.578ZM11.1968 13.3586C11.1968 11.2327 12.0413 9.19387 13.5445 7.69063C15.0477 6.1874 17.0866 5.34289 19.2125 5.34289H24.5563C26.6822 5.34289 28.721 6.1874 30.2242 7.69063C31.7275 9.19387 32.572 11.2327 32.572 13.3586V29.39C32.572 30.0996 32.2901 30.7802 31.7883 31.2819C31.2866 31.7837 30.606 32.0656 29.8964 32.0656H13.8687C13.1591 32.0656 12.4785 31.7837 11.9767 31.2819C11.475 30.7802 11.1931 30.0996 11.1931 29.39L11.1968 13.3586ZM5.85295 41.4127C5.85295 40.3497 6.27521 39.3303 7.02683 38.5787C7.77845 37.8271 8.79786 37.4048 9.86081 37.4048H33.907C37.8881 37.4048 39.2508 42.7486 36.5826 42.7486C5.85296 42.7486 5.85295 43.3096 5.85295 41.4127Z" fill="white"/>
</svg>
