<svg width="47" height="52" viewBox="0 0 47 52" fill="none" xmlns="http://www.w3.org/2000/svg">
<g clip-path="url(#clip0_43_605)">
<path d="M23.5 1.00792e-08C24.0116 -4.80065e-05 24.5086 0.171465 24.9128 0.4875L46.1088 17.0625C46.3863 17.2795 46.6108 17.5576 46.7653 17.8754C46.9197 18.1933 47 18.5425 47 18.8964V44.9429C46.9966 46.8152 46.2562 48.6098 44.9412 49.9328C43.6263 51.2558 41.8442 51.9993 39.9859 52H7.01406C5.15579 51.9993 3.3737 51.2558 2.05876 49.9328C0.743816 48.6098 0.00341669 46.8152 6.02348e-09 44.9429V18.8964C-2.53904e-05 18.5425 0.0802576 18.1933 0.234712 17.8754C0.389166 17.5576 0.613703 17.2795 0.891157 17.0625L22.0872 0.4875C22.4914 0.171465 22.9884 -4.80065e-05 23.5 1.00792e-08ZM42.3922 20.033L23.5 5.26036L4.60784 20.033V44.9429C4.61004 45.5843 4.86458 46.1986 5.31565 46.6512C5.76671 47.1038 6.37749 47.3576 7.01406 47.3571H39.9859C40.6225 47.3576 41.2333 47.1038 41.6844 46.6512C42.1354 46.1986 42.39 45.5843 42.3922 44.9429V20.033Z" fill="white"/>
<path d="M30.6337 51.9972C30.3311 51.9972 30.0315 51.9372 29.752 51.8205C29.4725 51.7038 29.2185 51.5329 29.0045 51.3173C28.7906 51.1017 28.6209 50.8458 28.5051 50.5642C28.3893 50.2825 28.3297 49.9806 28.3297 49.6758V28.0401H18.6699V49.6758C18.6699 50.2915 18.4271 50.8819 17.9951 51.3173C17.563 51.7526 16.977 51.9972 16.3659 51.9972C15.7549 51.9972 15.1689 51.7526 14.7368 51.3173C14.3047 50.8819 14.062 50.2915 14.062 49.6758V25.7186C14.062 25.103 14.3047 24.5125 14.7368 24.0771C15.1689 23.6418 15.7549 23.3972 16.3659 23.3972H30.6337C31.2447 23.3972 31.8307 23.6418 32.2628 24.0771C32.6948 24.5125 32.9376 25.103 32.9376 25.7186V49.6758C32.9376 49.9806 32.878 50.2825 32.7622 50.5642C32.6464 50.8458 32.4767 51.1017 32.2628 51.3173C32.0488 51.5329 31.7949 51.7038 31.5153 51.8205C31.2358 51.9372 30.9362 51.9972 30.6337 51.9972Z" fill="white"/>
</g>
<defs>
<clipPath id="clip0_43_605">
<rect width="47" height="52" fill="white"/>
</clipPath>
</defs>
</svg>
