<svg width="54" height="51" viewBox="0 0 54 51" fill="none" xmlns="http://www.w3.org/2000/svg">
<path d="M1.47723 18.6444L12.3281 15.1264V9.97083C12.3282 9.74627 12.3857 9.52545 12.4951 9.32939C12.6046 9.13333 12.7625 8.96857 12.9537 8.85077L26.2117 0.670835C26.4208 0.536193 26.6637 0.463523 26.9124 0.461237C27.1611 0.458951 27.4053 0.527143 27.6169 0.657918L40.7974 8.78988C41.0164 8.89984 41.2005 9.0685 41.3292 9.27704C41.4579 9.48557 41.5262 9.72578 41.5263 9.97083V15.1264L52.3772 18.6444C52.6662 18.7136 52.9235 18.8781 53.1077 19.1114C53.2918 19.3448 53.3919 19.6333 53.3921 19.9305V48.9598C53.3918 49.3103 53.2524 49.6465 53.0046 49.8944C52.7567 50.1423 52.4205 50.2816 52.07 50.2819H1.78354C1.43297 50.2816 1.09682 50.1423 0.848934 49.8944C0.601042 49.6465 0.46167 49.3103 0.461426 48.9598V19.9305C0.461542 19.6333 0.56173 19.3448 0.745843 19.1114C0.929955 18.8781 1.18727 18.7136 1.47631 18.6444H1.47723ZM21.8385 24.2539C21.4879 24.2539 21.1516 24.1146 20.9036 23.8667C20.6557 23.6187 20.5164 23.2824 20.5164 22.9318C20.5164 22.5811 20.6557 22.2449 20.9036 21.9969C21.1516 21.749 21.4879 21.6097 21.8385 21.6097H32.0141C32.3647 21.6097 32.701 21.749 32.9489 21.9969C33.1969 22.2449 33.3362 22.5811 33.3362 22.9318C33.3362 23.2824 33.1969 23.6187 32.9489 23.8667C32.701 24.1146 32.3647 24.2539 32.0141 24.2539H21.8385ZM21.8385 28.6336C21.4879 28.6336 21.1516 28.4943 20.9036 28.2463C20.6557 27.9984 20.5164 27.6621 20.5164 27.3115C20.5164 26.9608 20.6557 26.6245 20.9036 26.3766C21.1516 26.1286 21.4879 25.9893 21.8385 25.9893H32.0141C32.3647 25.9893 32.701 26.1286 32.9489 26.3766C33.1969 26.6245 33.3362 26.9608 33.3362 27.3115C33.3362 27.6621 33.1969 27.9984 32.9489 28.2463C32.701 28.4943 32.3647 28.6336 32.0141 28.6336H21.8385ZM22.262 32.6645H31.5906C31.9406 32.6652 32.276 32.8047 32.5233 33.0524C32.7707 33.3 32.9097 33.6357 32.9099 33.9857V47.6404H38.883V10.7034L26.9258 3.32244L14.9687 10.7034V47.6386H20.9417V33.9838C20.9421 33.8102 20.9766 33.6384 21.0434 33.4781C21.1102 33.3178 21.2079 33.1723 21.3309 33.0498C21.4539 32.9273 21.5999 32.8302 21.7604 32.7641C21.921 32.698 22.093 32.6641 22.2666 32.6645H22.262ZM30.2629 35.3087H23.5915V47.6386H30.2703L30.2629 35.3087ZM50.7451 20.8882L41.5189 17.898V47.6386H50.7451V20.8882ZM12.3281 17.898L3.10196 20.8882V47.6386H12.3281V17.898Z" fill="white"/>
<path d="M26.9294 2.876e-05C27.2593 7.62219e-05 27.5826 0.0920925 27.8631 0.265743L41.027 8.38479C41.3182 8.53422 41.5624 8.76128 41.7325 9.04086C41.9027 9.32044 41.9922 9.64164 41.9912 9.96892V14.7887L52.509 18.2024C52.8938 18.299 53.2353 18.5216 53.4789 18.8348C53.7225 19.148 53.8543 19.5337 53.8533 19.9304V48.9597C53.8528 49.4326 53.6647 49.8859 53.3304 50.2202C52.996 50.5546 52.5427 50.7427 52.0698 50.7431H1.78343C1.31058 50.7427 0.857248 50.5546 0.522898 50.2202C0.188547 49.8859 0.000494428 49.4326 5.95335e-06 48.9597V19.9304C-0.00102411 19.5324 0.13164 19.1455 0.37673 18.8318C0.621819 18.5181 0.965137 18.2958 1.35164 18.2005L11.8695 14.7868V9.96616C11.8687 9.66285 11.9459 9.36444 12.0937 9.09961C12.2416 8.83478 12.4551 8.61244 12.7137 8.45399L25.968 0.275892C26.2555 0.093837 26.5892 -0.00190623 26.9294 2.876e-05ZM52.0726 49.8214C52.3008 49.8212 52.5196 49.7304 52.681 49.5691C52.8424 49.4077 52.9332 49.1889 52.9334 48.9606V19.9304C52.934 19.7366 52.8689 19.5483 52.7488 19.3962C52.6287 19.2441 52.4606 19.1371 52.2719 19.0927L52.2359 19.0826L41.0676 15.4622V9.97077C41.068 9.81097 41.0237 9.65424 40.9398 9.51827C40.8558 9.38231 40.7355 9.27252 40.5925 9.2013L40.5574 9.18193L27.3741 1.04997C27.2367 0.964776 27.0779 0.920333 26.9162 0.921803C26.7545 0.923273 26.5966 0.970596 26.4607 1.05827H26.4533L13.1953 9.23821C13.0709 9.31459 12.9683 9.42165 12.8972 9.54912C12.8261 9.6766 12.789 9.8202 12.7893 9.96616L12.7847 15.4567L1.58414 19.0936C1.39547 19.138 1.22738 19.245 1.10726 19.3971C0.987135 19.5492 0.922058 19.7375 0.922625 19.9314V48.9597C0.922869 49.1879 1.01364 49.4067 1.17502 49.5681C1.3364 49.7295 1.5552 49.8203 1.78343 49.8205L52.0726 49.8214ZM26.9285 2.78449L39.3469 10.4422V48.0998H32.4485V33.9838C32.4483 33.7555 32.3575 33.5367 32.1961 33.3754C32.0347 33.214 31.8159 33.1232 31.5877 33.123H22.2665C22.0383 33.1232 21.8195 33.214 21.6581 33.3754C21.4967 33.5367 21.4059 33.7555 21.4057 33.9838V48.0998H14.51V10.4459L26.9285 2.78449ZM38.4234 10.9589L26.9276 3.86672L15.4326 10.9589V47.1772H20.4831V33.9838C20.4836 33.5109 20.6716 33.0576 21.006 32.7232C21.3403 32.3889 21.7936 32.2008 22.2665 32.2003H31.5905C32.0632 32.2016 32.5161 32.3902 32.8499 32.7249C33.1837 33.0595 33.3711 33.5129 33.3711 33.9856V47.1791H38.4215L38.4234 10.9589ZM41.0676 17.2613L51.2164 20.5504V48.0998H41.0676V17.2613ZM50.2938 21.2212L41.9902 18.5308V47.1772H50.2938V21.2212ZM12.7893 17.2631V48.0998H2.64792V20.5541L12.7893 17.2631ZM11.8667 47.1763V18.5327L3.56316 21.223V47.1763H11.8667ZM21.8384 21.1483H32.014C32.4869 21.1483 32.9406 21.3362 33.275 21.6706C33.6095 22.0051 33.7974 22.4587 33.7974 22.9317C33.7974 23.4047 33.6095 23.8583 33.275 24.1928C32.9406 24.5272 32.4869 24.7151 32.014 24.7151H21.8384C21.3654 24.7151 20.9118 24.5272 20.5773 24.1928C20.2429 23.8583 20.055 23.4047 20.055 22.9317C20.055 22.4587 20.2429 22.0051 20.5773 21.6706C20.9118 21.3362 21.3654 21.1483 21.8384 21.1483ZM32.014 23.7925C32.2423 23.7925 32.4612 23.7018 32.6226 23.5404C32.7841 23.379 32.8748 23.16 32.8748 22.9317C32.8748 22.7034 32.7841 22.4845 32.6226 22.323C32.4612 22.1616 32.2423 22.0709 32.014 22.0709H21.8384C21.6101 22.0709 21.3911 22.1616 21.2297 22.323C21.0683 22.4845 20.9776 22.7034 20.9776 22.9317C20.9776 23.16 21.0683 23.379 21.2297 23.5404C21.3911 23.7018 21.6101 23.7925 21.8384 23.7925H32.014ZM21.8384 25.528H32.014C32.4869 25.528 32.9406 25.7159 33.275 26.0503C33.6095 26.3848 33.7974 26.8384 33.7974 27.3114C33.7974 27.7844 33.6095 28.238 33.275 28.5725C32.9406 28.9069 32.4869 29.0948 32.014 29.0948H21.8384C21.3654 29.0948 20.9118 28.9069 20.5773 28.5725C20.2429 28.238 20.055 27.7844 20.055 27.3114C20.055 26.8384 20.2429 26.3848 20.5773 26.0503C20.9118 25.7159 21.3654 25.528 21.8384 25.528ZM32.0093 28.1722C32.2376 28.1722 32.4566 28.0815 32.618 27.9201C32.7795 27.7586 32.8701 27.5397 32.8701 27.3114C32.8701 27.0831 32.7795 26.8641 32.618 26.7027C32.4566 26.5413 32.2376 26.4506 32.0093 26.4506H21.8384C21.6101 26.4506 21.3911 26.5413 21.2297 26.7027C21.0683 26.8641 20.9776 27.0831 20.9776 27.3114C20.9776 27.5397 21.0683 27.7586 21.2297 27.9201C21.3911 28.0815 21.6101 28.1722 21.8384 28.1722H32.0093ZM23.1301 34.8473H30.7315V48.0998H23.1301V34.8473ZM29.8089 35.77H24.0527V47.1772H29.8089V35.77Z" fill="white"/>
</svg>
