<svg width="52" height="53" viewBox="0 0 52 53" fill="none" xmlns="http://www.w3.org/2000/svg">
<path d="M45.0982 24.734C44.5117 24.7445 43.9286 24.8277 43.3618 24.9817V12.2258C43.3594 8.98101 42.0924 5.87008 39.8396 3.57732C37.5868 1.28456 34.5327 -0.00222638 31.349 6.04061e-06H20.6535C19.0768 -0.00159073 17.5152 0.313393 16.058 0.926967C14.6008 1.54054 13.2764 2.44069 12.1605 3.576C11.0447 4.7113 10.1591 6.05953 9.55458 7.54368C8.95001 9.02783 8.63822 10.6188 8.63702 12.2258V24.9808C8.06997 24.8279 7.48702 24.7447 6.90059 24.733C5.38085 24.74 3.90547 25.2559 2.70154 26.2012C1.4976 27.1465 0.631826 28.4688 0.237457 29.9647C-0.156911 31.4606 -0.0580161 33.0471 0.518923 34.4802C1.09586 35.9132 2.11887 37.1132 3.4305 37.8956V51.233C3.43062 51.4653 3.47564 51.6952 3.56298 51.9097C3.65032 52.1242 3.77827 52.3191 3.93952 52.4832C4.10078 52.6473 4.29217 52.7774 4.50277 52.8661C4.71338 52.9547 4.93906 53.0002 5.16692 53H46.8346C47.0625 53.0002 47.2882 52.9547 47.4988 52.8661C47.7094 52.7774 47.9008 52.6473 48.062 52.4832C48.2233 52.3191 48.3513 52.1242 48.4386 51.9097C48.5259 51.6952 48.5709 51.4653 48.5711 51.233V37.8956C49.8824 37.1129 50.905 35.9127 51.4816 34.4797C52.0582 33.0467 52.1568 31.4603 51.7623 29.9646C51.3677 28.4689 50.5019 27.1468 49.2979 26.2017C48.094 25.2566 46.6188 24.7409 45.0991 24.734H45.0982ZM12.1117 12.2258C12.1175 9.91973 13.0197 7.70996 14.6206 6.08035C16.2216 4.45075 18.3908 3.53412 20.6535 3.53116H31.349C33.6116 3.53412 35.7809 4.45075 37.3819 6.08035C38.9828 7.70996 39.885 9.91973 39.8908 12.2258V27.1189C39.8036 27.2246 39.7523 27.3311 39.6826 27.419C39.5631 27.5543 39.4583 27.7022 39.3698 27.8603C39.1988 28.0907 39.0532 28.3396 38.9359 28.6026C38.8503 28.7562 38.7749 28.9155 38.7102 29.0794C38.5937 29.3673 38.495 29.6624 38.4149 29.9629C38.4303 30.1203 38.3871 30.2778 38.2938 30.4042C38.1727 30.5631 38.2938 30.8455 38.2938 31.0754C37.2065 30.3971 35.9572 30.0365 34.6824 30.033H17.32C16.0923 30.0621 14.8941 30.4221 13.8472 31.0764V30.4051C13.8397 30.325 13.8117 30.2483 13.7659 30.1827C13.7202 30.1171 13.6584 30.0648 13.5867 30.0312C13.5038 29.7373 13.4052 29.4483 13.2913 29.1654C13.2913 28.9887 13.1354 28.8298 13.0657 28.6709C12.996 28.5119 12.8052 28.1941 12.6667 27.9641L12.319 27.4873L12.1108 27.1133L12.1117 12.2258ZM38.1535 37.1009H13.8472C13.847 36.6361 13.9366 36.1758 14.1111 35.7464C14.2856 35.317 14.5414 34.9268 14.8639 34.5982C15.1865 34.2696 15.5695 34.0091 15.9909 33.8315C16.4123 33.6539 16.864 33.5628 17.32 33.5632H34.6815C35.1375 33.5629 35.5891 33.6541 36.0104 33.8318C36.4317 34.0094 36.8146 34.27 37.137 34.5985C37.4595 34.9271 37.7152 35.3172 37.8896 35.7466C38.064 36.176 38.1537 36.6362 38.1535 37.1009ZM5.75674 35.1217C5.16091 34.9047 4.635 34.525 4.23638 34.0242C3.83775 33.5233 3.5817 32.9205 3.49616 32.2815C3.41062 31.6426 3.49888 30.9919 3.75129 30.4005C4.00371 29.8092 4.41061 29.2998 4.9276 28.9279C5.44459 28.5561 6.05183 28.3361 6.6831 28.2919C7.31436 28.2477 7.94541 28.3811 8.50743 28.6774C9.06944 28.9737 9.54084 29.4216 9.87022 29.9722C10.1996 30.5228 10.3743 31.1551 10.3753 31.8V49.4698H6.90335V36.7831C6.90309 36.4196 6.79285 36.065 6.58766 35.7677C6.38247 35.4704 6.09231 35.2448 5.75674 35.1217ZM13.8472 40.6377H38.1553V49.4717H13.8472V40.6377ZM46.2439 35.1217C45.9087 35.2449 45.6188 35.4704 45.4138 35.7675C45.2088 36.0646 45.0986 36.4189 45.0982 36.7821V49.4679H41.6226V31.7981C41.6241 31.1538 41.799 30.5222 42.1284 29.9723C42.4578 29.4223 42.929 28.975 43.4906 28.6792C44.0523 28.3834 44.6828 28.2503 45.3135 28.2946C45.9442 28.3389 46.5509 28.5588 47.0674 28.9303C47.5839 29.3018 47.9905 29.8106 48.2428 30.4014C48.4951 30.9923 48.5835 31.6423 48.4983 32.2808C48.413 32.9192 48.1575 33.5216 47.7595 34.0222C47.3615 34.5228 46.8363 34.9025 46.2412 35.1199L46.2439 35.1217Z" fill="white"/>
</svg>
