<svg width="124" height="48" viewBox="0 0 124 48" fill="none" xmlns="http://www.w3.org/2000/svg">
<g id="Group 10134">
<path id="Vector" fill-rule="evenodd" clip-rule="evenodd" d="M123.078 22.4899C123.077 13.7378 118.838 6.83208 110.735 6.83262C102.598 6.83317 97.6758 13.7395 97.6763 22.4232C97.677 32.7138 103.489 37.91 111.831 37.9095C115.9 37.9092 118.976 36.9859 121.301 35.6866L121.301 28.849C118.976 30.0116 116.309 30.7297 112.925 30.7299C109.609 30.7301 106.668 29.5679 106.292 25.5338L123.01 25.5327C123.01 25.0882 123.078 23.3104 123.078 22.4899ZM106.189 19.2432C106.189 15.3799 108.548 13.7729 110.701 13.7728C112.787 13.7727 115.009 15.3793 115.009 19.2426L106.189 19.2432Z" fill="#32325D"/>
<path id="Vector_2" fill-rule="evenodd" clip-rule="evenodd" d="M84.4787 6.83446C81.1282 6.83469 78.9745 8.40748 77.778 9.50158L77.3334 7.38195L69.812 7.38246L69.8147 47.2457L78.3616 45.4332L78.3951 35.758C79.626 36.6468 81.438 37.9116 84.4466 37.9114C90.5662 37.911 96.1386 32.9875 96.1378 22.1499C96.103 12.2354 90.4616 6.83406 84.4787 6.83446ZM82.429 30.3902C80.4119 30.3903 79.2152 29.6724 78.3947 28.7836L78.3596 16.0998C79.2485 15.1083 80.4792 14.4245 82.4279 14.4243C85.539 14.4241 87.6931 17.9112 87.6934 22.3898C87.6937 26.971 85.5743 30.3899 82.429 30.3902Z" fill="#32325D"/>
<path id="Vector_3" d="M66.6325 7.4169L58.0513 7.41748L58.0533 37.332L66.6345 37.3314L66.6325 7.4169Z" fill="#32325D"/>
<path id="Vector_4" fill-rule="evenodd" clip-rule="evenodd" d="M48.8547 9.9482L48.3075 7.41832L40.9229 7.41882L40.9249 37.3333L49.4719 37.3328L49.4705 17.0593C51.4874 14.4267 54.9063 14.9051 55.9661 15.2811L55.9656 7.41781C54.8716 7.00762 50.8715 6.25575 48.8547 9.9482Z" fill="#32325D"/>
<path id="Vector_5" fill-rule="evenodd" clip-rule="evenodd" d="M31.7603 0.000414312L23.4186 1.77875L23.3862 29.1634C23.3866 34.2232 27.1817 37.9494 32.2415 37.9491C35.0449 37.9489 37.0962 37.436 38.2244 36.8205L38.2239 29.8803C37.1299 30.3248 31.7283 31.8979 31.728 26.838L31.7271 14.7013L38.2229 14.7008L38.2224 7.41879L31.7267 7.41922L31.7603 0.000414312Z" fill="#32325D"/>
<path id="Vector_6" fill-rule="evenodd" clip-rule="evenodd" d="M8.6502 16.1047C8.65011 14.7714 9.74409 14.2585 11.5561 14.2584C14.1543 14.2582 17.4364 15.0443 20.0348 16.4458L20.0343 8.41164C17.1966 7.28362 14.3932 6.83937 11.5556 6.83956C4.61539 6.84002 0.00024326 10.4643 0.000649457 16.5155C0.00128285 25.9514 12.9926 24.4463 12.9929 28.5147C12.993 30.0873 11.6255 30.6002 9.711 30.6004C6.87339 30.6006 3.24938 29.4384 0.377479 27.866L0.378025 36.0027C3.5576 37.37 6.77132 37.951 9.71149 37.9508C16.8226 37.9503 21.7113 34.4286 21.7108 28.309C21.676 18.1209 8.65045 19.9338 8.6502 16.1047Z" fill="#32325D"/>
</g>
</svg>
