<svg width="64" height="64" viewBox="0 0 64 64" fill="none" xmlns="http://www.w3.org/2000/svg">
<g clip-path="url(#clip0_43_534)">
<path d="M31.9996 0.600098C14.6496 0.600098 0.599609 14.6501 0.599609 32.0001C0.599609 49.3501 14.6996 63.4001 31.9996 63.4001C49.2996 63.4001 63.3996 49.3001 63.3996 32.0001C63.3996 14.7001 49.3496 0.600098 31.9996 0.600098ZM31.9996 4.4001C38.7996 4.4001 44.9996 6.8501 49.7996 10.9501L42.1996 18.5001C39.3496 16.3501 35.7996 15.0501 31.9996 15.0501C28.1996 15.0501 24.5996 16.3501 21.7996 18.5001L14.1996 10.9501C18.9996 6.9001 25.1996 4.4001 31.9996 4.4001ZM45.0996 32.0001C45.0996 39.2001 39.2496 45.1001 31.9996 45.1001C24.7496 45.1001 18.8996 39.2001 18.8996 32.0001C18.8996 24.8001 24.7996 18.9001 31.9996 18.9001C39.1996 18.9001 45.0996 24.8001 45.0996 32.0001ZM4.39961 32.0001C4.39961 24.9501 7.04961 18.5001 11.4496 13.6501L18.9996 21.2001C16.5496 24.1501 15.0996 27.9001 15.0996 32.0001C15.0996 35.8501 16.3996 39.4001 18.5496 42.2001L10.9496 49.8001C6.89961 45.0001 4.39961 38.8001 4.39961 32.0001ZM31.9996 59.6001C24.9496 59.6001 18.4996 56.9501 13.6496 52.5501L21.1996 45.0001C24.1496 47.4501 27.8996 48.9001 31.9996 48.9001C36.0996 48.9001 39.8996 47.4501 42.7996 45.0001L50.3496 52.5501C45.4996 56.9001 39.0496 59.6001 31.9996 59.6001ZM53.0496 49.8001L45.4996 42.2001C47.6496 39.3501 48.9496 35.8001 48.9496 32.0001C48.9496 27.9001 47.4996 24.1001 45.0496 21.2001L52.5996 13.6501C56.9496 18.5501 59.6496 24.9501 59.6496 32.0001C59.5996 38.8001 57.0996 45.0001 53.0496 49.8001Z" fill="#D6AC00"/>
</g>
<defs>
<clipPath id="clip0_43_534">
<rect width="64" height="64" fill="white"/>
</clipPath>
</defs>
</svg>
