<svg width="49" height="36" viewBox="0 0 49 36" fill="none" xmlns="http://www.w3.org/2000/svg">
<g clip-path="url(#clip0_43_639)">
<path d="M47.3665 0H1.63355C1.20031 0 0.784806 0.172425 0.478456 0.479342C0.172106 0.786259 2.63704e-07 1.20253 2.63704e-07 1.63658V6.54537C-0.000121668 6.76037 0.0420414 6.97328 0.12408 7.17195C0.206119 7.37061 0.326426 7.55114 0.478128 7.70321C0.629829 7.85527 0.809951 7.9759 1.0082 8.05821C1.20646 8.14051 1.41895 8.18287 1.63355 8.18287H8.16775V11.456C8.16775 11.8901 8.33986 12.3063 8.6462 12.6133C8.95256 12.9202 9.36806 13.0926 9.8013 13.0926H22.8669V26.4762L16.0069 27.8181C15.6324 27.8946 15.2965 28.1002 15.0577 28.3993C14.8189 28.6983 14.6924 29.0718 14.7001 29.4546V34.3634C14.7001 34.7975 14.8722 35.2137 15.1785 35.5207C15.4849 35.8276 15.9004 36 16.3336 36H32.671C33.1042 36 33.5197 35.8276 33.8261 35.5207C34.1324 35.2137 34.3046 34.7975 34.3046 34.3634V29.4546C34.3123 29.0718 34.1857 28.6983 33.9469 28.3993C33.7081 28.1002 33.3722 27.8946 32.9977 27.8181L26.1377 26.4762V13.0907H39.1996C39.6329 13.0907 40.0484 12.9183 40.3547 12.6114C40.6611 12.3045 40.8332 11.8882 40.8332 11.4542V8.18287H47.3665C47.7997 8.18287 48.2152 8.01045 48.5215 7.70353C48.8279 7.39662 49 6.98035 49 6.5463V1.63658C49 1.20253 48.8279 0.786259 48.5215 0.479342C48.2152 0.172425 47.7997 0 47.3665 0ZM31.031 32.7315H17.9663V30.7964L24.5033 29.4872L31.0365 30.7964L31.031 32.7315ZM37.5642 9.82224H11.433V8.18287H37.5661L37.5642 9.82224ZM45.732 4.91344H3.2671V3.27315H45.7329L45.732 4.91344Z" fill="white"/>
</g>
<defs>
<clipPath id="clip0_43_639">
<rect width="49" height="36" fill="white"/>
</clipPath>
</defs>
</svg>
