<svg width="44" height="49" viewBox="0 0 44 49" fill="none" xmlns="http://www.w3.org/2000/svg">
<g clip-path="url(#clip0_43_616)">
<path d="M42 -0.000273669H2.00004C1.51891 -0.0436121 1.03993 0.103163 0.665982 0.408534C0.292031 0.713904 0.0529209 1.15352 0 1.63297V42.4668C0.0529209 42.9462 0.292031 43.3858 0.665982 43.6912C1.03993 43.9966 1.51891 44.1433 2.00004 44.1V47.3665C2.05296 47.8459 2.29207 48.2855 2.66602 48.5909C3.03998 48.8963 3.51895 49.0431 4.00008 48.9997H40.0008C40.482 49.0431 40.9609 48.8963 41.3349 48.5909C41.7088 48.2855 41.948 47.8459 42.0009 47.3665V44.1C42.482 44.1433 42.961 43.9966 43.3349 43.6912C43.7089 43.3858 43.948 42.9462 44.0009 42.4668V1.63297C43.948 1.15334 43.7088 0.713586 43.3346 0.408191C42.9604 0.102795 42.4812 -0.0438645 42 -0.000273669ZM40.0008 3.26621V40.8299H23.9996V3.26621H40.0008ZM4.001 3.26621H19.9995V40.8299H4.00008L4.001 3.26621ZM37.9999 45.7332H6.00012V44.1H37.9999V45.7332Z" fill="white"/>
<path d="M39.3599 29.2466H29.291V32.9024H39.3599V29.2466Z" fill="white"/>
<path d="M39.3599 34.7302H29.291V37.4721H39.3599V34.7302Z" fill="white"/>
<path d="M14.6455 29.2466H4.57666V32.9024H14.6455V29.2466Z" fill="white"/>
<path d="M14.6455 34.7302H4.57666V37.4721H14.6455V34.7302Z" fill="white"/>
<path d="M30.2068 12.7952H26.5454V21.0208H30.2068V12.7952Z" fill="white"/>
<path d="M17.3916 12.7952H14.6455V21.0208H17.3916V12.7952Z" fill="white"/>
</g>
<defs>
<clipPath id="clip0_43_616">
<rect width="44" height="49" fill="white"/>
</clipPath>
</defs>
</svg>
